HIERARCHY
ROOT Hips
{
	OFFSET -3.958830 18.904000 13.208200
	CHANNELS 6 Xposition Yposition Zposition Zrotation Yrotation Xrotation 
	JOINT LHipJoint
	{
		OFFSET 0.000000 0.000000 0.000000
		CHANNELS 3 Zrotation Yrotation Xrotation
		JOINT LeftUpLeg
		{
			OFFSET 1.800000 -1.400000 0.085000
			CHANNELS 3 Zrotation Yrotation Xrotation
			JOINT LeftLeg
			{
				OFFSET 2.215000 -6.000000 0.000000
				CHANNELS 3 Zrotation Yrotation Xrotation
				JOINT LeftFoot
				{
					OFFSET 2.500000 -6.900000 0.000000
					CHANNELS 3 Zrotation Yrotation Xrotation
					JOINT LeftToeBase
					{
						OFFSET 0.200000 -0.500000 1.950000
						CHANNELS 3 Zrotation Yrotation Xrotation
						End Site
						{
							OFFSET 0.000000 0.000000 0.000000
						}
					}
				}
			}
		}
	}
	JOINT RHipJoint
	{
		OFFSET 0.000000 0.000000 0.000000
		CHANNELS 3 Zrotation Yrotation Xrotation
		JOINT RightUpLeg
		{
			OFFSET -1.800000 -1.400000 0.085000
			CHANNELS 3 Zrotation Yrotation Xrotation
			JOINT RightLeg
			{
				OFFSET -2.215000 -6.000000 0.000000
				CHANNELS 3 Zrotation Yrotation Xrotation
				JOINT RightFoot
				{
					OFFSET -2.500000 -6.900000 0.000000
					CHANNELS 3 Zrotation Yrotation Xrotation
					JOINT RightToeBase
					{
						OFFSET -0.200000 -0.500000 1.950000
						CHANNELS 3 Zrotation Yrotation Xrotation
						End Site
						{
							OFFSET 0.000000 0.000000 0.000000
						}
					}
				}
			}
		}
	}
	JOINT LowerBack
	{
		OFFSET 0.000000 0.000000 0.000000
		CHANNELS 3 Zrotation Yrotation Xrotation
		JOINT Spine
		{
			OFFSET -0.087000 1.940000 -0.288900
			CHANNELS 3 Zrotation Yrotation Xrotation
			JOINT Spine1
			{
				OFFSET 0.000000 1.950000 0.060000
				CHANNELS 3 Zrotation Yrotation Xrotation
				JOINT Neck
				{
					OFFSET 0.000000 0.000000 0.000000
					CHANNELS 3 Zrotation Yrotation Xrotation
					JOINT Neck1
					{
						OFFSET 0.000000 1.600000 0.340000
						CHANNELS 3 Zrotation Yrotation Xrotation
						JOINT Head
						{
							OFFSET 0.000000 1.667000 -0.240000
							CHANNELS 3 Zrotation Yrotation Xrotation
							End Site
							{
								OFFSET 0.000000 0.000000 0.000000
							}
						}
					}
				}
				JOINT LeftShoulder
				{
					OFFSET 0.000000 0.000000 0.000000
					CHANNELS 3 Zrotation Yrotation Xrotation
					JOINT LeftArm
					{
						OFFSET 2.700000 1.550000 -0.730000
						CHANNELS 3 Zrotation Yrotation Xrotation
						JOINT LeftForeArm
						{
							OFFSET 5.450000 0.000000 0.000000
							CHANNELS 3 Zrotation Yrotation Xrotation
							JOINT LeftHand
							{
								OFFSET 3.450000 0.000000 0.000000
								CHANNELS 3 Zrotation Yrotation Xrotation
								JOINT LeftHandIndex1
								{
									OFFSET 0.750000 0.000000 0.000000
									CHANNELS 3 Zrotation Yrotation Xrotation
									End Site
									{
										OFFSET 0.000000 0.000000 0.000000
									}
								}
							}
						}
					}
				}
				JOINT RightShoulder
				{
					OFFSET 0.000000 0.000000 0.000000
					CHANNELS 3 Zrotation Yrotation Xrotation
					JOINT RightArm
					{
						OFFSET -2.700000 1.550000 -0.730000
						CHANNELS 3 Zrotation Yrotation Xrotation
						JOINT RightForeArm
						{
							OFFSET -5.450000 0.000000 0.000000
							CHANNELS 3 Zrotation Yrotation Xrotation
							JOINT RightHand
							{
								OFFSET -3.450000 0.000000 0.000000
								CHANNELS 3 Zrotation Yrotation Xrotation
								JOINT RightHandIndex1
								{
									OFFSET -0.750000 0.000000 0.000000
									CHANNELS 3 Zrotation Yrotation Xrotation
									End Site
									{
										OFFSET 0.000000 0.000000 0.000000
									}
								}
							}
						}
					}
				}
			}
		}
	}
}
MOTION
Frames: 8
Frame Time: 0.016667
0.075270 16.416840 -0.875180 -1.734879 2.550266 0.917843 -15.171962 13.514616 2.414054 6.769736 -1.916900 -13.221422 -5.059498 6.730020 20.774275 -1.100429 5.737522 3.062368 0.323250 -0.394720 0.005950 18.335495 -10.794739 2.639099 0.408946 1.991257 -16.656414 4.626061 -4.768849 16.056388 0.148525 -3.577797 3.635480 0.254940 1.111310 0.228760 -3.686034 -2.001190 -6.347705 7.259176 -0.700485 2.004122 -6.409997 0.393069 9.019862 0.505259 -3.646254 -6.877842 -6.194398 -0.204097 20.458798 -1.987750 -3.106610 0.877010 -16.409696 0.476793 1.218880 -43.535063 -10.278108 9.104972 -142.344399 -59.053083 109.276868 -4.382104 3.475565 0.391870 0.764640 -0.814210 0.483110 15.281720 0.493850 4.412915 45.905779 -8.732563 -9.289032 25.182059 31.246563 3.536349 1.239676 -1.721245 -0.737820 0.667080 0.320530 -0.370870 
0.123040 16.331700 -0.870880 -1.112959 2.424831 1.989813 -15.212603 13.443976 2.454732 6.068844 -2.007645 -13.485264 -5.905961 6.734173 19.812754 -1.200144 5.743824 3.073085 0.403000 -0.295400 0.059780 18.323776 -10.648690 2.647752 0.148793 2.287513 -18.201369 4.669689 -4.352878 14.263659 0.195872 -3.395475 3.668349 0.370950 1.152190 0.247800 -3.611307 -2.122185 -6.304341 7.102544 -1.234817 1.072482 -6.138853 -0.191539 9.801790 0.531212 -3.547036 -6.987949 -5.619239 0.306353 18.343158 -2.928140 -2.562740 0.235740 -15.196019 0.640286 1.209764 -42.583444 -10.289176 9.739403 -143.064610 -57.772593 108.980330 -4.447814 3.542477 0.354660 0.826850 -0.842200 0.504440 14.153235 0.178159 4.477915 43.318545 -9.539262 -8.723103 30.791960 34.732340 5.516467 1.135341 -1.879876 -0.763460 0.705790 0.300890 -0.381410 
0.172270 16.238880 -0.877060 -0.647036 2.167010 2.516300 -15.228902 13.417241 2.511622 5.570196 -2.088773 -13.585077 -6.672182 6.874799 19.551242 -1.237466 5.800171 3.048755 0.442810 -0.267640 0.131150 18.316360 -10.569792 2.656547 0.069439 2.579000 -19.785235 4.143576 -4.116744 14.217865 0.213750 -3.254444 3.683877 0.405010 1.131690 0.263930 -3.575998 -2.211151 -6.332110 7.376618 -1.783591 1.053990 -6.101867 -0.704481 10.166285 0.708679 -3.566843 -7.313002 -5.538668 0.628885 17.527147 -3.987230 -1.860380 -0.311650 -15.143052 -0.079674 1.366620 -40.537322 -9.699066 9.327753 -142.314862 -57.008943 106.837771 -4.477104 3.556354 0.370240 0.836140 -0.828050 0.493930 13.825032 0.802347 4.925122 40.398322 -10.550061 -8.390326 36.006143 38.268393 7.835558 1.084234 -1.978670 -0.774450 0.704660 0.283900 -0.413520 
0.225870 16.142030 -0.891690 -0.633075 2.112467 2.594746 -15.211788 13.385200 2.565267 5.717343 -2.193953 -13.634086 -7.674536 7.275815 20.133801 -1.212546 5.926358 2.959291 0.515110 -0.186580 0.195070 18.334545 -10.538403 2.673630 0.410566 2.926373 -21.556080 3.351452 -4.086136 16.042088 0.178262 -3.186649 3.665067 0.433280 1.048840 0.272460 -3.627661 -2.208480 -6.398427 8.568661 -2.525925 1.759332 -6.475296 -1.345953 10.211334 0.866931 -3.810901 -7.471996 -5.971061 1.021839 17.421771 -4.033890 -1.537570 -1.881560 -16.156638 -1.024184 1.411747 -37.675571 -8.938883 8.457406 -141.705532 -56.370673 105.024359 -4.425184 3.577679 0.415270 0.779280 -0.762680 0.491470 14.515104 1.670510 5.304730 37.031800 -11.435733 -8.067095 40.009441 41.257675 10.013558 1.076223 -2.039536 -0.738890 0.679640 0.245030 -0.429840 
0.279590 16.041870 -0.917790 -0.589919 2.230365 2.418563 -15.187108 13.366827 2.620968 5.788062 -2.381172 -13.812295 -8.411386 7.767387 21.551365 -1.143330 6.134622 2.852570 0.550080 -0.147490 0.227090 18.354871 -10.504768 2.716098 0.454339 3.400676 -24.041725 2.892064 -4.415725 19.640133 0.118635 -3.291074 3.595673 0.423400 0.988600 0.289430 -3.696643 -2.226670 -6.500381 9.772461 -3.308315 3.008589 -6.824811 -1.969974 9.918288 0.958988 -4.171698 -7.585620 -6.668575 1.338501 17.667662 -3.990440 -1.354050 -3.276410 -17.492517 -2.100093 1.365508 -34.464497 -8.253053 7.391877 -139.272903 -55.772194 100.634317 -4.385970 3.578759 0.463090 0.728350 -0.694200 0.493750 15.621440 2.728473 5.725738 33.809205 -12.399830 -7.927259 43.195238 43.772271 11.965864 1.087848 -2.058062 -0.701270 0.661730 0.220230 -0.431390 
0.335550 15.943610 -0.954550 -0.481831 2.241250 1.988754 -15.157076 13.310963 2.692116 5.702450 -2.698791 -14.065777 -9.197791 8.473656 23.819154 -1.060186 6.454044 2.688401 0.571640 -0.126010 0.275290 18.383067 -10.436365 2.825595 0.159572 4.059838 -27.247228 2.717353 -5.111489 24.810165 0.013660 -3.644564 3.426416 0.401330 0.895190 0.280800 -3.783514 -2.221272 -6.685158 10.832123 -4.027483 5.010986 -7.339086 -2.427222 9.211615 1.228596 -4.325585 -7.581043 -7.072775 1.566823 18.340743 -3.956240 -0.964930 -5.168930 -19.197574 -3.183157 1.176428 -31.318641 -7.682184 6.081253 -135.833681 -55.703414 95.557632 -4.325729 3.543198 0.537660 0.650060 -0.616700 0.467380 16.708295 3.645528 6.024406 31.244434 -12.878747 -7.833254 45.265882 44.836250 13.145351 1.124838 -2.022387 -0.677330 0.644820 0.202980 -0.455300 
0.389020 15.863800 -1.006780 -0.459147 2.226249 0.773633 -15.111023 13.274346 2.750191 5.691417 -3.032889 -14.072359 -9.475837 9.117855 26.368018 -0.930867 6.764945 2.525527 0.569800 -0.153640 0.328350 18.420218 -10.321156 3.050731 -0.638421 4.947242 -30.922150 2.478219 -6.327756 32.359458 -0.199186 -4.485324 3.081268 0.323420 0.763620 0.269700 -3.903388 -2.291363 -7.025392 12.086329 -4.963220 8.711283 -7.922977 -2.875850 7.882815 1.535901 -4.780103 -7.868614 -8.166647 1.884406 19.884812 -3.568460 -0.589070 -7.417820 -21.179355 -4.717811 1.158625 -28.104019 -6.752988 4.088659 -129.863077 -56.167830 87.765973 -4.220919 3.495773 0.648910 0.523410 -0.512770 0.426750 17.963857 5.273066 6.612757 29.199810 -13.330833 -8.226003 46.962789 46.469067 14.482496 1.209062 -1.954084 -0.642200 0.600090 0.185350 -0.484750 
0.445020 15.784530 -1.059250 -0.191026 2.467693 -0.608059 -15.099557 13.179801 2.808606 5.383203 -3.581884 -14.338245 -9.586805 9.944310 29.934559 -0.771790 7.256150 2.329275 0.539420 -0.200020 0.357450 18.447180 -10.073909 3.375989 -2.467238 5.896046 -35.324450 2.377549 -8.189028 41.566673 -0.510436 -5.915905 2.572554 0.248480 0.674880 0.234070 -3.956865 -2.467639 -7.450563 12.756372 -6.011671 13.052183 -8.256560 -3.387034 6.087719 1.875890 -5.149880 -8.282302 -9.137232 2.033344 21.429141 -3.600430 -0.303950 -9.145190 -22.846831 -6.159652 1.223074 -25.669326 -5.718893 2.255896 -122.115699 -56.039989 77.822564 -4.138125 3.427543 0.742680 0.426890 -0.438580 0.395160 18.912081 6.892757 7.193513 28.066830 -13.613546 -8.807188 48.090034 48.283750 15.697260 1.282250 -1.869060 -0.639650 0.595050 0.174350 -0.508520 
